#!OML:ASF X:\2005_08_12_Meinard\c3d\meinard.ASF
:FULLY-SPECIFIED
:DEGREES
1039
root -1.87374 17.1478 -4.79593 -24.3882 -70.2325 9.05651
lowerback 33.328 -3.15379 -0.770472
upperback 2.38736 -5.35312 -4.14122
thorax -14.9003 -2.5647 -1.78684
lowerneck 4.09799 -15.3295 4.75978
upperneck -17.2598 -19.6897 7.57862
head -5.61609 -10.5229 2.78976
rclavicle 7.10655e-014 -1.11319e-014
rhumerus 36.7671 -14.6416 -6.67
rradius 55.7639
rwrist 13.5831
rhand -35.7765 1.21098
rfingers 7.12502
rthumb -8.89418 -28.5816
lclavicle 7.10655e-014 -1.11319e-014
lhumerus 147.083 133.971 223.603
lradius 8.15055
lwrist -62.1126
lhand -18.1445 -14.1283
lfingers 7.12502
lthumb 8.13086 15.6953
rfemur 3.21397 -3.77953 17.1662
rtibia 30.9602
rfoot -16.1946 9.33696
rtoes -7.69833
lfemur 16.3819 -2.95359 -6.53209
ltibia 28.4781
lfoot 3.10424 17.2098
ltoes -33.1919
1040
root -1.89764 17.1628 -4.806 -24.4708 -70.008 9.24585
lowerback 33.2331 -3.11401 -0.739551
upperback 2.38593 -5.29325 -4.18254
thorax -14.8674 -2.54219 -1.87798
lowerneck 4.08547 -15.4343 4.74717
upperneck -17.2345 -19.8277 7.61622
head -5.59857 -10.5906 2.80631
rclavicle -1.39149e-014 -2.54444e-014
rhumerus 37.2582 -16.9907 -8.40191
rradius 51.8711
rwrist 12.9724
rhand -34.397 0.471894
rfingers 7.12502
rthumb -7.56282 -29.3729
lclavicle -1.39149e-014 -2.54444e-014
lhumerus 147.402 134.273 223.938
lradius 8.06448
lwrist -61.8822
lhand -18.1702 -13.8264
lfingers 7.12502
lthumb 8.10604 15.9981
rfemur 3.36922 -3.79979 17.1055
rtibia 30.6577
rfoot -16.1025 9.17902
rtoes -7.54458
lfemur 16.187 -3.14882 -6.64942
ltibia 28.5087
lfoot 3.48646 17.303
ltoes -32.9358
1041
root -1.92111 17.1771 -4.81614 -24.531 -69.8119 9.4109
lowerback 33.1551 -3.06659 -0.688733
upperback 2.37195 -5.21792 -4.22923
thorax -14.858 -2.51374 -1.99121
lowerneck 4.07185 -15.5375 4.76362
upperneck -17.2083 -19.9615 7.65005
head -5.58417 -10.6575 2.81815
rclavicle 5.86912e-014 3.89618e-014
rhumerus 37.9483 -19.4024 -10.176
rradius 47.8392
rwrist 12.6652
rhand -33.2185 -0.414037
rfingers 7.12502
rthumb -6.42517 -30.2966
lclavicle 5.86912e-014 3.89618e-014
lhumerus 147.726 134.617 224.242
lradius 7.94074
lwrist -61.6261
lhand -18.2058 -13.6318
lfingers 7.12502
lthumb 8.07176 16.1941
rfemur 3.52142 -3.75314 17.0814
rtibia 30.3585
rfoot -16.013 8.94994
rtoes -7.44748
lfemur 16.0043 -3.32502 -6.74619
ltibia 28.5386
lfoot 3.8951 17.3892
ltoes -32.6602
1042
root -1.94354 17.1914 -4.82617 -24.5526 -69.5925 9.53922
lowerback 33.0608 -3.02914 -0.584267
upperback 2.36848 -5.14034 -4.30651
thorax -14.8374 -2.4891 -2.16821
lowerneck 4.05309 -15.6506 4.7762
upperneck -17.1758 -20.1021 7.7403
head -5.5603 -10.7316 2.84536
rclavicle 2.75814e-014 3.10104e-014
rhumerus 38.8189 -21.8916 -11.92
rradius 43.6702
rwrist 12.3959
rhand -32.2514 -1.40954
rfingers 7.12502
rthumb -5.49144 -31.3184
lclavicle 2.75814e-014 3.10104e-014
lhumerus 148.126 135.009 224.576
lradius 7.81011
lwrist -61.3308
lhand -18.201 -13.4632
lfingers 7.12502
lthumb 8.07635 16.3625
rfemur 3.67251 -3.707 17.0605
rtibia 30.0586
rfoot -15.9167 8.71591
rtoes -7.32857
lfemur 15.799 -3.50702 -6.82615
ltibia 28.5691
lfoot 4.32323 17.3983
ltoes -32.5537
1043
root -1.96592 17.205 -4.83662 -24.5965 -69.3866 9.68703
lowerback 32.9662 -2.9701 -0.500039
upperback 2.3704 -5.04082 -4.3738
thorax -14.8056 -2.45339 -2.33298
lowerneck 4.05321 -15.7607 4.84025
upperneck -17.2182 -20.2343 7.82202
head -5.56988 -10.8058 2.87095
rclavicle 2.15184e-014 1.59028e-015
rhumerus 39.9027 -24.5298 -13.8768
rradius 39.542
rwrist 12.2961
rhand -31.539 -2.62695
rfingers 7.12502
rthumb -4.80365 -32.5525
lclavicle 2.15184e-014 1.59028e-015
lhumerus 148.611 135.394 224.974
lradius 7.5946
lwrist -61.0453
lhand -18.2429 -13.3586
lfingers 7.12502
lthumb 8.03593 16.4686
rfemur 3.81761 -3.66109 17.0399
rtibia 29.7691
rfoot -15.8254 8.47515
rtoes -7.15441
lfemur 15.6113 -3.67096 -6.89567
ltibia 28.5873
lfoot 4.7502 17.3972
ltoes -32.369
